<svg width="29" height="28" viewBox="0 0 29 28" fill="none" xmlns="http://www.w3.org/2000/svg">
<g id="white">
<path id="Union" fill-rule="evenodd" clip-rule="evenodd" d="M14.4147 21.1024C12.9069 20.8759 11.4953 20.2555 10.366 19.2751C10.3164 19.2313 10.2667 19.1847 10.2196 19.1406L10.2109 19.1324C10.1054 19.0362 10.0061 18.9369 9.90687 18.8345C9.80759 18.7322 9.71451 18.6267 9.62144 18.5212L9.57399 18.4658C9.49918 18.3786 9.42374 18.2907 9.35463 18.1985C8.30289 16.849 7.72894 15.2016 7.72894 13.458C7.72894 11.6647 8.33392 9.9677 9.4446 8.59641C9.45546 8.58245 9.46632 8.56927 9.47717 8.55608C9.48803 8.5429 9.49889 8.52971 9.50975 8.51575C9.66177 8.3327 9.82 8.15586 9.99063 7.98833C10.3381 7.64086 10.7135 7.33681 11.1106 7.0669C11.2254 6.98934 11.3402 6.91178 11.4581 6.84352C11.4814 6.82956 11.5054 6.8156 11.5294 6.80164C11.5535 6.78768 11.5775 6.77372 11.6008 6.75976C12.4633 6.27577 13.4188 5.95001 14.4178 5.79799C15.0849 5.69871 15.6712 5.34503 16.0715 4.8021C16.4717 4.25917 16.6392 3.59214 16.5368 2.92511C16.4344 2.25809 16.0808 1.66862 15.5409 1.2684C15.0321 0.893003 14.4178 0.728573 13.7942 0.790622V0.78752L13.7384 0.796827C13.726 0.798378 13.7136 0.799154 13.7012 0.799929C13.6888 0.800705 13.6764 0.801481 13.6639 0.803032C13.4406 0.837159 13.2203 0.877491 13 0.920925C10.5212 1.3987 8.23774 2.59315 6.4166 4.4143C1.44025 9.39064 1.43094 17.485 6.39178 22.4706L6.4197 22.4985L6.4228 22.5016L6.4259 22.5047C8.4394 24.5151 11.0082 25.7654 13.7911 26.1253V26.1098C14.4147 26.1719 15.0321 26.0074 15.5378 25.632C16.0808 25.2318 16.4344 24.6423 16.5337 23.9753C16.633 23.3083 16.4686 22.6413 16.0684 22.0983C15.6681 21.5554 15.0818 21.2017 14.4147 21.1024ZM22.4687 8.58712C24.4977 8.58712 26.1483 6.98314 26.1483 5.01308C26.1483 2.98407 24.4977 1.33356 22.4687 1.33356C20.4987 1.33356 18.8947 2.98407 18.8947 5.01308C18.8947 6.98314 20.4987 8.58712 22.4687 8.58712ZM22.1585 16.1695C24.7118 16.1695 25.6519 17.5718 25.99 18.7477C26.7005 21.2172 25.2672 25.5048 22.3508 27.3291L21.7924 27.6797V23.3021C19.9775 23.1159 18.5814 21.5895 18.5814 19.7436C18.5814 17.7735 20.1884 16.1695 22.1585 16.1695Z" fill="white"/>
</g>
</svg>
