<svg width="13" height="13" viewBox="0 0 13 13" fill="none" xmlns="http://www.w3.org/2000/svg">
<path fill-rule="evenodd" clip-rule="evenodd" d="M6.58263 0.477436C7.25439 0.22685 7.97218 0.123666 8.68732 0.174884C9.40247 0.226101 10.0982 0.43052 10.7274 0.774278C11.3566 1.11803 11.9045 1.59309 12.334 2.16722C12.6096 2.53576 12.5344 3.058 12.1658 3.33367C11.7973 3.60934 11.275 3.53406 10.9994 3.16551C10.7131 2.78276 10.3478 2.46606 9.92833 2.23689C9.50887 2.00772 9.04503 1.87144 8.56827 1.83729C8.0915 1.80315 7.61298 1.87194 7.16514 2.03899C6.7173 2.20605 6.31062 2.46747 5.9727 2.80551L3.478 5.30022C2.8738 5.92836 2.53959 6.76826 2.54716 7.63997C2.55476 8.51395 2.90532 9.35 3.52335 9.96802C4.14138 10.5861 4.97742 10.9366 5.85141 10.9442C6.72311 10.9518 7.563 10.6176 8.19114 10.0134L9.61075 8.59378C9.93618 8.26834 10.4638 8.26834 10.7893 8.59378C11.1147 8.91921 11.1147 9.44685 10.7893 9.77229L9.36426 11.1973L9.35393 11.2074C8.41092 12.1182 7.14791 12.6222 5.83692 12.6108C4.52594 12.5994 3.27188 12.0736 2.34484 11.1465C1.4178 10.2195 0.891952 8.96543 0.88056 7.65445C0.869168 6.34346 1.37314 5.08045 2.28393 4.13744L2.29408 4.12711L4.79397 1.62722C4.79394 1.62725 4.79401 1.62718 4.79397 1.62722C5.30084 1.1202 5.91092 0.728004 6.58263 0.477436Z" fill="#6D6AFE"/>
</svg>
